<?xml version="1.0" standalone="no"?>
<svg xmlns:xlink="http://www.w3.org/1999/xlink" id="wave" style="transform:rotate(180deg); transition: 0.3s" viewBox="0 0 1440 120" version="1.1" xmlns="http://www.w3.org/2000/svg"><defs><linearGradient id="sw-gradient-0" x1="0" x2="0" y1="1" y2="0"><stop stop-color="rgba(250, 243, 224, 1)" offset="0%"/><stop stop-color="rgba(250, 243, 224, 1)" offset="100%"/></linearGradient></defs><path style="transform:translate(0, 0px); opacity:1" fill="url(#sw-gradient-0)" d="M0,72L48,60C96,48,192,24,288,30C384,36,480,72,576,76C672,80,768,52,864,46C960,40,1056,56,1152,68C1248,80,1344,88,1440,86C1536,84,1632,72,1728,68C1824,64,1920,68,2016,68C2112,68,2208,64,2304,62C2400,60,2496,60,2592,54C2688,48,2784,36,2880,30C2976,24,3072,24,3168,20C3264,16,3360,8,3456,10C3552,12,3648,24,3744,28C3840,32,3936,28,4032,36C4128,44,4224,64,4320,60C4416,56,4512,28,4608,22C4704,16,4800,32,4896,36C4992,40,5088,32,5184,24C5280,16,5376,8,5472,6C5568,4,5664,8,5760,26C5856,44,5952,76,6048,74C6144,72,6240,36,6336,36C6432,36,6528,72,6624,76C6720,80,6816,52,6864,38L6912,24L6912,120L6864,120C6816,120,6720,120,6624,120C6528,120,6432,120,6336,120C6240,120,6144,120,6048,120C5952,120,5856,120,5760,120C5664,120,5568,120,5472,120C5376,120,5280,120,5184,120C5088,120,4992,120,4896,120C4800,120,4704,120,4608,120C4512,120,4416,120,4320,120C4224,120,4128,120,4032,120C3936,120,3840,120,3744,120C3648,120,3552,120,3456,120C3360,120,3264,120,3168,120C3072,120,2976,120,2880,120C2784,120,2688,120,2592,120C2496,120,2400,120,2304,120C2208,120,2112,120,2016,120C1920,120,1824,120,1728,120C1632,120,1536,120,1440,120C1344,120,1248,120,1152,120C1056,120,960,120,864,120C768,120,672,120,576,120C480,120,384,120,288,120C192,120,96,120,48,120L0,120Z"/></svg>